<svg xmlns="http://www.w3.org/2000/svg" width="30.938" height="44" viewBox="0 0 30.938 44"><g transform="translate(-76)"><g transform="translate(76)"><path d="M91.469,0a15.472,15.472,0,0,0-13.16,23.6L90.588,43.391a1.289,1.289,0,0,0,1.1.609h.01a1.289,1.289,0,0,0,1.1-.627l11.966-19.979A15.472,15.472,0,0,0,91.469,0Zm11.074,22.07L91.664,40.235,80.5,22.245a12.9,12.9,0,1,1,22.043-.174Z" transform="translate(-76)" fill="#fff"/></g><g transform="translate(83.734 7.734)"><path d="M173.734,90a7.734,7.734,0,1,0,7.734,7.734A7.743,7.743,0,0,0,173.734,90Zm0,12.908a5.173,5.173,0,1,1,5.165-5.173A5.177,5.177,0,0,1,173.734,102.908Z" transform="translate(-166 -90)" fill="#fff"/></g></g></svg>